# xmcd
#
# Track frame offsets: 
#        150
#        13787
#        27372
#        41925
#        55840
#        68932
#        83925
#        98770
#        113342
#        127252
#        140482
#        154432
#        167210
#        180517
#        195480
#        209402
#        222270
#        236892
#        252600
#        265477
#
# Disc length: 3725 seconds
#
# Revision: 2
# Processed by: cddbd v1.5.1PL2 Copyright (c) Steve Scherf et al.
# Submitted via: ExactAudioCopy v0.95b3
#
DISCID=330e8b14
DTITLE=Memphis Minnie and Kansas Joe - Vol 4 (1933-34)
DYEAR=1991
DGENRE=Blues
TTITLE0=My Butcher Man
TTITLE1=Too Late
TTITLE2=Ain't No Use Trying To Tell On Me
TTITLE3=Stinging Snake Blues
TTITLE4=Drunken Barrel House Blues
TTITLE5=I Got To Have A Little More
TTITLE6=Someday I'll Be In The clay
TTITLE7=Evil Devil Woman Blues
TTITLE8=Going Back Home Blues
TTITLE9=Meat Cutter Blues
TTITLE10=You Got To Move - Pt 1
TTITLE11=Keep It To Yourself
TTITLE12=Keep It To Yourself (Alt)
TTITLE13=Chickasaw Train Blues (Low Down Dirty Thing)
TTITLE14=Banana Man Blues (I Don't Want That Thing)
TTITLE15=You Got To Move - Pt 2
TTITLE16=Hole In The Wall
TTITLE17=Give It To Me In My Hand (Can I Go Home With You)
TTITLE18=Squat It
TTITLE19=Moaning The Blues
EXTD=Document-5031\n\nSubmitted by J. Rockwall McCoy - 6/2/97\nJmccoy@
EXTD=efn.org
EXTT0=
EXTT1=
EXTT2=
EXTT3=
EXTT4=
EXTT5=
EXTT6=
EXTT7=
EXTT8=
EXTT9=
EXTT10=
EXTT11=
EXTT12=
EXTT13=
EXTT14=
EXTT15=
EXTT16=
EXTT17=
EXTT18=
EXTT19=
PLAYORDER=
